#N canvas 0 0 1366 685 10;
#X text -307 -91 Lorena Torres Herrera;
#X text -307 -56 Programación Interactiva (Martes y Viernes 14:00
- 16:00);
#X text -307 -38 Trabajo Final;
#X obj 268 92 soundfiler;
#X floatatom 268 118 10 0 0 0 - - -;
#X msg 267 44 read -resize \$1 sample;
#X obj 266 -25 bng 15 250 50 0 empty empty empty 17 7 0 10 -262144
-1 -1;
#X obj 266 10 openpanel;
#X obj 251 397 tabread4~ sample;
#X obj 248 442 dac~;
#X obj 242 311 phasor~;
#X floatatom 292 185 10 0 0 0 - - -;
#X obj 246 344 *~ 0;
#X obj 116 157 hsl 128 15 -2 2 0 0 empty empty empty -2 -8 0 10 -4032
-1 -1 0 1;
#X floatatom 102 185 5 0 0 0 - - -;
#X text 100 131 velocidad y dirección;
#X obj 289 156 expr 44100 / $f1;
#N canvas 0 0 450 300 (subpatch) 0;
#X array sample 308700 float 2;
#X coords 0 1 308700 -1 200 140 1;
#X restore 421 -19 graph;
#X obj 576 213 loadbang;
#X msg 558 254 0;
#X msg 605 252 1;
#X obj 599 297 hsl 128 15 0 2 0 0 empty empty empty -2 -8 0 10 -232576
-1 -1 0 1;
#X obj 536 448 *~;
#X obj 677 432 *~;
#X floatatom 708 407 5 0 0 0 - - -;
#X obj 621 494 *~;
#X obj 620 523 dac~;
#X obj 720 507 hsl 128 15 0 10 0 0 empty empty empty -2 -8 0 10 -203904
-1 -1 0 1;
#X floatatom 602 447 5 0 0 0 - - -;
#X obj 447 464 readsf~;
#X msg 658 258 2;
#X floatatom 812 405 5 0 0 0 - - -;
#X obj 777 422 *~;
#X obj 463 273 bng 15 250 50 0 empty empty empty 17 7 0 10 -262144
-1 -1;
#X msg 494 404 stop;
#X obj 545 389 vcf~;
#X obj 602 415 -;
#X obj 601 372 swap 1;
#X obj 549 329 osc~ -2;
#X msg 429 377 open jam.wav \, 1;
#X obj 768 329 bp~ -20;
#X obj -306 134 readsf~;
#X obj -176 202 dac~;
#X obj -175 157 *~;
#X obj -118 34 hsl 128 20 10 10 0 0 empty empty empty -2 -8 0 10 -257985
-1 -1 0 1;
#X obj -193 24 bng 15 250 50 0 empty empty empty 17 7 0 10 -262144
-1 -1;
#X msg -216 105 stop;
#X obj -331 382 readsf~;
#X obj -239 299 bng 15 250 50 0 empty empty empty 17 7 0 10 -262144
-1 -1;
#X obj -241 341 delwrite~ delayname 200;
#X floatatom -90 358 5 0 0 0 - - -;
#X obj -81 310 hsl 128 15 0 10 0 0 empty empty empty -2 -8 0 10 -261234
-1 -1 0 1;
#X obj -216 531 dac~;
#X obj 672 27 readsf~;
#X obj 825 198 env~;
#X obj 893 154 vu 15 120 empty empty -1 -8 0 10 -66577 -1 1 0;
#X obj 876 -17 vsl 15 128 0 2 0 0 empty empty empty 0 -9 0 10 -204786
-1 -1 0 1;
#X obj 760 193 dac~;
#X msg 723 -8 stop;
#X obj 818 156 *~;
#X obj 243 265 *;
#X obj 169 19 tgl 15 0 empty empty empty 17 7 0 10 -262144 -1 -1 0
1;
#X text 445 242 CANCION: JAM;
#X msg -317 336 stop;
#X obj 814 9 bng 15 250 50 0 empty empty empty 17 7 0 10 -262144 -1
-1;
#X msg -15 436 1;
#X obj 41 478 readsf~;
#X obj 41 520 dac~;
#X msg 40 443 open closetacapella.wav \, 1;
#X obj 135 487 bng 15 250 50 0 empty empty empty 17 7 0 10 -262144
-1 -1;
#X msg -32 463 0;
#X msg 670 -48 open screamacapella.wav \, 1;
#X obj 839 233 -170;
#X text -372 30 CANCION: HOLLYWOOD TONIGHT;
#X text -208 289 CANCIÓN: UNBREAKABLE;
#X text 233 -57 CANCIÓN: WHO IS IT;
#X text 725 -76 CANCIÓN: SCREAM;
#X text 33 405 CANCIÓN: IN THE CLOSET;
#X msg -361 285 open un.wav \, 1;
#X msg -304 71 open hollywood.wav \, 1;
#X text -306 -73 NUA: 145994;
#X obj 655 330 lop~ -40;
#X obj 795 107 osc~ 2;
#X msg -112 107 \$1 700;
#X obj -112 153 line~;
#X obj -233 427 delread~ delayname 50;
#X obj -203 371 *~ 0.6;
#X connect 3 0 4 0;
#X connect 4 0 16 0;
#X connect 4 0 12 1;
#X connect 5 0 3 0;
#X connect 6 0 7 0;
#X connect 7 0 5 0;
#X connect 8 0 9 0;
#X connect 8 0 9 1;
#X connect 10 0 12 0;
#X connect 11 0 60 1;
#X connect 12 0 8 0;
#X connect 13 0 14 0;
#X connect 14 0 60 0;
#X connect 16 0 11 0;
#X connect 18 0 19 0;
#X connect 18 0 20 0;
#X connect 18 0 30 0;
#X connect 19 0 21 0;
#X connect 20 0 21 0;
#X connect 21 0 24 0;
#X connect 21 0 37 0;
#X connect 22 0 25 0;
#X connect 23 0 25 0;
#X connect 24 0 23 1;
#X connect 25 0 26 0;
#X connect 25 0 26 1;
#X connect 27 0 25 1;
#X connect 28 0 22 1;
#X connect 29 0 25 0;
#X connect 29 1 33 0;
#X connect 30 0 21 0;
#X connect 31 0 32 1;
#X connect 32 0 25 0;
#X connect 33 0 39 0;
#X connect 34 0 29 0;
#X connect 35 0 22 0;
#X connect 36 0 28 0;
#X connect 37 0 36 0;
#X connect 37 1 36 1;
#X connect 38 0 35 0;
#X connect 39 0 29 0;
#X connect 40 0 32 0;
#X connect 41 0 43 0;
#X connect 41 1 45 0;
#X connect 43 0 42 0;
#X connect 43 0 42 1;
#X connect 44 0 83 0;
#X connect 45 0 79 0;
#X connect 46 0 41 0;
#X connect 47 0 86 0;
#X connect 47 1 48 0;
#X connect 48 0 78 0;
#X connect 50 0 85 0;
#X connect 51 0 50 0;
#X connect 53 0 59 0;
#X connect 53 1 64 0;
#X connect 53 1 82 1;
#X connect 54 0 72 0;
#X connect 56 0 59 1;
#X connect 58 0 53 0;
#X connect 59 0 54 0;
#X connect 59 0 57 0;
#X connect 59 0 57 1;
#X connect 60 0 10 0;
#X connect 61 0 4 0;
#X connect 63 0 47 0;
#X connect 64 0 71 0;
#X connect 65 0 66 0;
#X connect 66 0 67 0;
#X connect 66 0 67 1;
#X connect 66 1 69 0;
#X connect 68 0 66 0;
#X connect 69 0 68 0;
#X connect 70 0 66 0;
#X connect 71 0 53 0;
#X connect 72 0 55 0;
#X connect 78 0 47 0;
#X connect 79 0 41 0;
#X connect 81 0 23 0;
#X connect 82 0 59 0;
#X connect 83 0 84 0;
#X connect 84 0 43 1;
#X connect 85 0 52 0;
#X connect 85 0 52 1;
#X connect 85 0 86 0;
#X connect 86 0 49 0;
